{
    "asset" : {
        "generator" : "Khronos glTF Blender I/O v3.3.32",
        "version" : "2.0"
    },
    "scene" : 0,
    "scenes" : [
        {
            "name" : "Scene",
            "nodes" : [
                0
            ]
        }
    ],
    "nodes" : [
        {
            "mesh" : 0,
            "name" : "Rock"
        }
    ],
    "materials" : [
        {
            "doubleSided" : true,
            "name" : "Rock",
            "pbrMetallicRoughness" : {
                "baseColorFactor" : [
                    0.11999999731779099,
                    0.11999999731779099,
                    0.11999999731779099,
                    1
                ],
                "metallicFactor" : 0,
                "roughnessFactor" : 0.5
            }
        }
    ],
    "meshes" : [
        {
            "name" : "Icosphere",
            "primitives" : [
                {
                    "attributes" : {
                        "POSITION" : 0,
                        "NORMAL" : 1,
                        "TEXCOORD_0" : 2
                    },
                    "indices" : 3,
                    "material" : 0
                }
            ]
        }
    ],
    "accessors" : [
        {
            "bufferView" : 0,
            "componentType" : 5126,
            "count" : 122,
            "max" : [
                0.14879226684570312,
                0.16012609004974365,
                0.13359098136425018
            ],
            "min" : [
                -0.13698698580265045,
                -0.13669174909591675,
                -0.14762702584266663
            ],
            "type" : "VEC3"
        },
        {
            "bufferView" : 1,
            "componentType" : 5126,
            "count" : 122,
            "type" : "VEC3"
        },
        {
            "bufferView" : 2,
            "componentType" : 5126,
            "count" : 122,
            "type" : "VEC2"
        },
        {
            "bufferView" : 3,
            "componentType" : 5123,
            "count" : 192,
            "type" : "SCALAR"
        }
    ],
    "bufferViews" : [
        {
            "buffer" : 0,
            "byteLength" : 1464,
            "byteOffset" : 0,
            "target" : 34962
        },
        {
            "buffer" : 0,
            "byteLength" : 1464,
            "byteOffset" : 1464,
            "target" : 34962
        },
        {
            "buffer" : 0,
            "byteLength" : 976,
            "byteOffset" : 2928,
            "target" : 34962
        },
        {
            "buffer" : 0,
            "byteLength" : 384,
            "byteOffset" : 3904,
            "target" : 34963
        }
    ],
    "buffers" : [
        {
            "byteLength" : 4288,
            "uri" : "data:application/octet-stream;base64,"
        }
    ]
}
